<svg width="161" height="161" viewBox="0 0 161 161" fill="none" xmlns="http://www.w3.org/2000/svg">
<path d="M80.5003 160.083C36.5464 160.083 0.916992 124.454 0.916992 80.5C0.916992 36.5461 36.5464 0.916626 80.5003 0.916626C124.454 0.916626 160.084 36.5461 160.084 80.5C160.084 124.454 124.454 160.083 80.5003 160.083ZM69.5337 51.9693C69.0548 51.6498 68.4981 51.4661 67.923 51.4379C67.3479 51.4097 66.776 51.5379 66.268 51.8091C65.7601 52.0802 65.3352 52.484 65.0385 52.9775C64.7419 53.471 64.5847 54.0357 64.5837 54.6115V106.388C64.5847 106.964 64.7419 107.529 65.0385 108.022C65.3352 108.516 65.7601 108.92 66.268 109.191C66.776 109.462 67.3479 109.59 67.923 109.562C68.4981 109.534 69.0548 109.35 69.5337 109.031L108.362 83.1501C108.797 82.8583 109.154 82.4639 109.4 82.0017C109.647 81.5395 109.776 81.0238 109.776 80.5C109.776 79.9762 109.647 79.4604 109.4 78.9982C109.154 78.5361 108.797 78.1417 108.362 77.8498L69.5337 51.9693Z" fill="#590078"/>
</svg>
