<svg width="173" height="173" viewBox="0 0 173 173" fill="none" xmlns="http://www.w3.org/2000/svg">
<path d="M95.3666 0.258598C101.661 0.234446 107.955 0.297703 114.247 0.448349L115.92 0.508723C117.852 0.577723 119.758 0.663973 122.061 0.767473C131.238 1.19872 137.5 2.64772 142.994 4.7781C148.686 6.96885 153.482 9.93585 158.277 14.7313C162.662 19.0405 166.056 24.2529 168.222 30.0062C170.352 35.5004 171.801 41.7707 172.233 50.9477C172.336 53.242 172.422 55.1567 172.491 57.0887L172.543 58.762C172.696 65.0513 172.762 71.3424 172.741 77.6335L172.75 84.0677V95.3665C172.771 101.66 172.705 107.954 172.552 114.247L172.5 115.92C172.431 117.852 172.345 119.758 172.241 122.061C171.81 131.238 170.344 137.5 168.222 142.994C166.063 148.753 162.668 153.97 158.277 158.277C153.965 162.662 148.749 166.055 142.994 168.222C137.5 170.352 131.238 171.801 122.061 172.233C119.758 172.336 117.852 172.422 115.92 172.491L114.247 172.543C107.955 172.696 101.661 172.762 95.3666 172.741L88.9323 172.75H77.6422C71.3482 172.771 65.0543 172.705 58.7621 172.552L57.0888 172.5C55.0414 172.426 52.9943 172.339 50.9478 172.241C41.7708 171.81 35.5091 170.344 30.0063 168.222C24.2507 166.06 19.0374 162.666 14.7315 158.277C10.3417 153.967 6.94503 148.751 4.77822 142.994C2.64784 137.5 1.19884 131.238 0.767593 122.061C0.671536 120.014 0.585285 117.967 0.508844 115.92L0.46572 114.247C0.306706 107.955 0.234823 101.661 0.250094 95.3665V77.6335C0.226022 71.3424 0.289278 65.0513 0.439844 58.762L0.500219 57.0887C0.569219 55.1567 0.655469 53.242 0.758969 50.9477C1.19022 41.7621 2.63922 35.509 4.76959 30.0062C6.93768 24.2501 10.341 19.0391 14.7401 14.74C19.0431 10.3477 24.2531 6.94791 30.0063 4.7781C35.5091 2.64772 41.7622 1.19872 50.9478 0.767473L57.0888 0.508723L58.7621 0.465599C65.0513 0.306665 71.3424 0.234782 77.6336 0.249974L95.3666 0.258598ZM86.5001 43.3836C80.7861 43.3028 75.113 44.3584 69.8105 46.4892C64.508 48.6199 59.6819 51.7833 55.6126 55.7955C51.5433 59.8076 48.312 64.5885 46.1065 69.8603C43.901 75.1321 42.7652 80.7897 42.7652 86.5043C42.7652 92.2189 43.901 97.8765 46.1065 103.148C48.312 108.42 51.5433 113.201 55.6126 117.213C59.6819 121.225 64.508 124.389 69.8105 126.519C75.113 128.65 80.7861 129.706 86.5001 129.625C97.9376 129.625 108.907 125.081 116.994 116.994C125.082 108.906 129.625 97.9374 129.625 86.5C129.625 75.0625 125.082 64.0935 116.994 56.006C108.907 47.9185 97.9376 43.3836 86.5001 43.3836ZM86.5001 60.6336C89.9372 60.5703 93.3525 61.1925 96.5465 62.4639C99.7404 63.7353 102.649 65.6304 105.102 68.0386C107.556 70.4467 109.504 73.3195 110.835 76.4893C112.166 79.6591 112.851 83.0622 112.852 86.4999C112.852 89.9376 112.168 93.341 110.838 96.5112C109.509 99.6814 107.561 102.555 105.108 104.964C102.656 107.373 99.748 109.269 96.5545 110.541C93.3609 111.814 89.9459 112.437 86.5087 112.375C79.6462 112.375 73.0648 109.649 68.2123 104.796C63.3598 99.9439 60.6337 93.3625 60.6337 86.5C60.6337 79.6375 63.3598 73.0561 68.2123 68.2036C73.0648 63.3511 79.6462 60.625 86.5087 60.625L86.5001 60.6336ZM131.781 30.4461C128.999 30.5575 126.367 31.7412 124.438 33.7492C122.509 35.7573 121.431 38.434 121.431 41.2187C121.431 44.0034 122.509 46.6801 124.438 48.6882C126.367 50.6963 128.999 51.88 131.781 51.9914C134.641 51.9914 137.383 50.8555 139.405 48.8336C141.427 46.8117 142.563 44.0695 142.563 41.2101C142.563 38.3507 141.427 35.6085 139.405 33.5866C137.383 31.5647 134.641 30.4289 131.781 30.4289V30.4461Z" fill="#9D9895"/>
</svg>
