<svg width="116" height="116" viewBox="0 0 116 116" fill="none" xmlns="http://www.w3.org/2000/svg">
<path d="M63.9114 0.505732C68.1074 0.489631 72.3033 0.531802 76.4981 0.632232L77.6136 0.672482C78.9016 0.718482 80.1724 0.775982 81.7076 0.844982C87.8256 1.13248 92.0001 2.09848 95.6629 3.51873C99.4579 4.97923 102.655 6.95723 105.852 10.1542C108.775 13.027 111.037 16.5019 112.482 20.3375C113.902 24.0002 114.868 28.1805 115.155 34.2985C115.224 35.828 115.282 37.1045 115.328 38.3925L115.362 39.508C115.465 43.7008 115.509 47.8949 115.495 52.089L115.5 56.3785V63.911C115.515 68.107 115.47 72.303 115.368 76.4977L115.334 77.6132C115.288 78.9012 115.23 80.172 115.161 81.7072C114.874 87.8252 113.896 91.9997 112.482 95.6625C111.042 99.5021 108.779 102.98 105.852 105.851C102.977 108.774 99.4999 111.037 95.6629 112.481C92.0001 113.901 87.8256 114.867 81.7076 115.155C80.1724 115.224 78.9016 115.281 77.6136 115.327L76.4981 115.362C72.3034 115.464 68.1074 115.508 63.9114 115.494L59.6219 115.5H52.0951C47.8991 115.514 43.7032 115.47 39.5084 115.368L38.3929 115.333C37.0279 115.284 35.6632 115.226 34.2989 115.161C28.1809 114.873 24.0064 113.896 20.3379 112.481C16.5008 111.04 13.0253 108.777 10.1546 105.851C7.22815 102.978 4.96368 99.501 3.51914 95.6625C2.09889 91.9997 1.13289 87.8252 0.845388 81.7072C0.781349 80.3428 0.723849 78.9782 0.672888 77.6132L0.644139 76.4977C0.538129 72.303 0.490207 68.107 0.500388 63.911V52.089C0.48434 47.8949 0.526511 43.7009 0.626888 39.508L0.667138 38.3925C0.713138 37.1045 0.770638 35.828 0.839638 34.2985C1.12714 28.1747 2.09314 24.006 3.51339 20.3375C4.95878 16.5 7.22768 13.026 10.1604 10.16C13.029 7.23181 16.5024 4.96528 20.3379 3.51873C24.0064 2.09848 28.1751 1.13248 34.2989 0.844982L38.3929 0.672482L39.5084 0.643733C43.7012 0.537777 47.8953 0.489855 52.0894 0.499982L63.9114 0.505732ZM58.0004 29.2557C54.1911 29.2019 50.409 29.9056 46.874 31.3261C43.339 32.7466 40.1216 34.8555 37.4087 37.5303C34.6959 40.2051 32.5417 43.3923 31.0713 46.9069C29.601 50.4214 28.8438 54.1931 28.8438 58.0029C28.8438 61.8126 29.601 65.5843 31.0713 69.0989C32.5417 72.6134 34.6959 75.8007 37.4087 78.4754C40.1216 81.1502 43.339 83.2591 46.874 84.6796C50.409 86.1001 54.1911 86.8039 58.0004 86.75C65.6254 86.75 72.938 83.721 78.3297 78.3293C83.7214 72.9376 86.7504 65.625 86.7504 58C86.7504 50.375 83.7214 43.0623 78.3297 37.6707C72.938 32.279 65.6254 29.2557 58.0004 29.2557ZM58.0004 40.7557C60.2918 40.7135 62.5687 41.1283 64.698 41.9759C66.8273 42.8235 68.7663 44.0869 70.4019 45.6924C72.0374 47.2978 73.3366 49.213 74.2237 51.3262C75.1107 53.4394 75.5678 55.7081 75.5682 57.9999C75.5686 60.2917 75.1123 62.5606 74.2259 64.6741C73.3396 66.7876 72.041 68.7033 70.406 70.3092C68.771 71.9152 66.8323 73.1792 64.7033 74.0276C62.5743 74.8759 60.2976 75.2914 58.0061 75.25C53.4312 75.25 49.0435 73.4326 45.8085 70.1976C42.5735 66.9626 40.7561 62.575 40.7561 58C40.7561 53.425 42.5735 49.0374 45.8085 45.8024C49.0435 42.5674 53.4312 40.75 58.0061 40.75L58.0004 40.7557ZM88.1879 20.6307C86.3329 20.705 84.5786 21.4941 83.2924 22.8328C82.0062 24.1715 81.2878 25.956 81.2878 27.8125C81.2878 29.669 82.0062 31.4534 83.2924 32.7921C84.5786 34.1309 86.3329 34.92 88.1879 34.9942C90.0941 34.9942 91.9223 34.237 93.2702 32.8891C94.6181 31.5411 95.3754 29.713 95.3754 27.8067C95.3754 25.9005 94.6181 24.0723 93.2702 22.7244C91.9223 21.3765 90.0941 20.6192 88.1879 20.6192V20.6307Z" fill="white"/>
</svg>
