<svg width="116" height="92" viewBox="0 0 116 92" fill="none" xmlns="http://www.w3.org/2000/svg">
<path d="M59.403 0C62.4735 0.01725 70.1555 0.0919997 78.3205 0.41975L81.2185 0.546249C89.4353 0.931499 97.6463 1.5985 101.723 2.73125C107.157 4.26075 111.423 8.71125 112.866 14.3578C115.166 23.3278 115.454 40.8193 115.488 45.057L115.494 45.931V46.9315C115.454 51.1692 115.166 68.6665 112.866 77.6307C111.406 83.2945 107.134 87.7508 101.723 89.2573C97.6463 90.39 89.4353 91.057 81.2185 91.4422L78.3205 91.5745C70.1555 91.8965 62.4735 91.977 59.403 91.9885L58.0517 91.9943H56.5855C50.088 91.954 22.9135 91.6608 14.2655 89.2573C8.8375 87.7278 4.56525 83.2772 3.122 77.6307C0.822 68.6607 0.5345 51.1692 0.5 46.9315V45.057C0.5345 40.8193 0.822 23.322 3.122 14.3578C4.5825 8.694 8.85475 4.23775 14.2712 2.737C22.9135 0.327749 50.0938 0.0345 56.5913 0H59.403ZM46.4942 25.875V66.125L80.9942 46L46.4942 25.875Z" fill="white"/>
</svg>
