<svg width="173" height="139" viewBox="0 0 173 139" fill="none" xmlns="http://www.w3.org/2000/svg">
<path d="M88.6045 0.5C93.2103 0.525875 104.733 0.638 116.981 1.12962L121.328 1.31937C133.653 1.89725 145.969 2.89775 152.085 4.59687C160.235 6.89112 166.635 13.5669 168.8 22.0366C172.25 35.4916 172.681 61.7289 172.733 68.0855L172.741 69.3965V70.8972C172.681 77.2539 172.25 103.5 168.8 116.946C166.609 125.442 160.201 132.126 152.085 134.386C145.969 136.085 133.653 137.085 121.328 137.663L116.981 137.862C104.733 138.345 93.2103 138.465 88.6045 138.483L86.5776 138.491H84.3782C74.632 138.431 33.8703 137.991 20.8983 134.386C12.7563 132.092 6.34788 125.416 4.183 116.946C0.733001 103.491 0.30175 77.2539 0.25 70.8972V68.0855C0.30175 61.7289 0.733001 35.483 4.183 22.0366C6.37375 13.541 12.7821 6.85662 20.9069 4.6055C33.8703 0.991624 74.6406 0.55175 84.3869 0.5H88.6045ZM69.2414 39.3125V99.6875L120.991 69.5L69.2414 39.3125Z" fill="#9D9895"/>
</svg>
